<svg version="1.2" xmlns="http://www.w3.org/2000/svg" viewBox="0 0 272 162" width="272" height="162">
	<defs>
		<clipPath clipPathUnits="userSpaceOnUse" id="cp1">
			<path d="m0 0h272v162h-272z"/>
		</clipPath>
	</defs>
	<style>
		.s0 { fill: #ffffff } 
	</style>
	<filter id="f0">
		<feFlood flood-color="#c4cbf5" flood-opacity="1" />
		<feBlend mode="normal" in2="SourceGraphic"/>
		<feComposite in2="SourceAlpha" operator="in" />
	</filter>
	<g id="Clip-Path" clip-path="url(#cp1)" style="opacity: .7" filter="url(#f0)">
		<g>
			<path class="s0" d="m139.99 10.7l14.86 14.81-10.7 10.66-14.85-14.81c-8.42-8.39-22.1-8.39-30.51 0-8.42 8.39-8.42 22.03 0 30.41l34.67 34.57-10.7 10.66-34.67-34.56c-14.31-14.27-14.31-37.48 0-51.74 14.31-14.27 37.59-14.27 51.9 0z"/>
			<path class="s0" d="m183.85 14.77l10.7 10.67-50.67 50.51-34.17-34.07c-2.96-2.95-2.96-7.72 0-10.67 2.95-2.94 7.74-2.94 10.69 0l23.48 23.4 39.97-39.84z"/>
			<path class="s0" d="m28.74 115.95l-10.63 25.11h-7.54l-10.57-25.11h7.54l6.97 17.08 7.21-17.08zm1.65 0h7.3v25.11h-7.3zm3.65-3.51q-2.02 0-3.28-1.16-1.26-1.17-1.26-2.89 0-1.73 1.26-2.9 1.26-1.16 3.28-1.16 2.01 0 3.27 1.12 1.27 1.12 1.27 2.79 0 1.82-1.27 3.01-1.26 1.19-3.27 1.19zm34.73-6.02v34.63h-6.97v-2.89q-2.72 3.26-7.86 3.26-3.56 0-6.44-1.59-2.88-1.58-4.52-4.52-1.63-2.94-1.64-6.82 0-3.87 1.64-6.81 1.64-2.94 4.52-4.53 2.88-1.58 6.44-1.58 4.82 0 7.53 3.03v-12.18h7.31zm-13.58 29.03q2.76 0 4.59-1.89 1.83-1.89 1.83-5.06 0-3.17-1.83-5.06-1.82-1.89-4.59-1.89c-1.84 0-3.41 0.63-4.63 1.89q-1.83 1.89-1.83 5.06 0 3.17 1.83 5.06 1.82 1.89 4.63 1.89zm29.12-19.88q5.85 0 8.99 2.78 3.14 2.78 3.14 8.38v14.32h-6.84v-3.13q-2.06 3.51-7.68 3.51-2.9 0-5.03-0.98-2.13-0.98-3.25-2.71-1.12-1.73-1.12-3.92 0-3.5 2.64-5.5 2.64-2.01 8.17-2.01h5.8q0-2.38-1.45-3.66-1.45-1.28-4.35-1.29-2.01 0-3.96 0.63-1.94 0.63-3.29 1.7l-2.63-5.08q2.06-1.45 4.94-2.24 2.88-0.79 5.92-0.79zm-0.56 20.94q1.87 0 3.33-0.86 1.45-0.86 2.06-2.54v-2.57h-5.01q-4.5 0-4.5 2.94 0 1.4 1.1 2.22 1.1 0.81 3.02 0.81zm40.64-6.71h-20.59q0.28 3.82 2.95 6.18 2.66 2.35 6.73 2.35 2.3 0 4.22-0.81 1.92-0.82 3.32-2.41l1.87 2.15q-1.64 1.96-4.09 2.98-2.46 1.03-5.41 1.03-3.79 0-6.72-1.61-2.92-1.61-4.56-4.46-1.64-2.85-1.64-6.44 0-3.59 1.57-6.44 1.57-2.84 4.31-4.43 2.73-1.59 6.15-1.59 3.42 0 6.14 1.59 2.71 1.59 4.26 4.41 1.54 2.82 1.54 6.46l-0.04 1.03zm-11.89-10.64q-3.56 0-5.97 2.26-2.41 2.26-2.74 5.9h17.46q-0.33-3.64-2.74-5.9-2.41-2.26-6.01-2.26zm48.18-2.85q4.63 0 7.28 2.66 2.64 2.66 2.64 7.84v14.23h-3.32v-13.9q0-3.83-1.85-5.83-1.85-2.01-5.22-2.01-3.84 0-6.04 2.36-2.19 2.35-2.2 6.51v12.88h-3.32v-13.91q0-3.82-1.85-5.83-1.84-2.01-5.26-2.01-3.79 0-6.02 2.36-2.22 2.36-2.22 6.51v12.88h-3.32v-24.54h3.18v4.48q1.31-2.25 3.65-3.46 2.34-1.21 5.39-1.21c2.03 0 3.84 0.43 5.36 1.3q2.27 1.31 3.39 3.88 1.36-2.43 3.91-3.81 2.55-1.37 5.83-1.37zm28.14 25.01q-3.79 0-6.76-1.64-2.98-1.63-4.66-4.5-1.69-2.87-1.69-6.51 0-3.64 1.69-6.51 1.68-2.87 4.66-4.48 2.97-1.61 6.76-1.61 3.37 0 6.01 1.35 2.65 1.35 4.1 3.91l-3.42 2.2q-1.17-1.78-2.9-2.66-1.73-0.89-3.84-0.89-2.43 0-4.37 1.07-1.94 1.07-3.04 3.06-1.11 1.98-1.1 4.55c0 1.71 0.36 3.27 1.1 4.6q1.1 1.98 3.04 3.05 1.94 1.07 4.37 1.07 2.11 0 3.84-0.88 1.74-0.89 2.9-2.66l3.42 2.14q-1.45 2.57-4.1 3.94-2.64 1.38-6.01 1.38zm23.67-25.25q5.14 0 7.88 2.52 2.74 2.52 2.74 7.51v14.93h-4.26v-3.26q-1.13 1.73-3.2 2.63-2.09 0.91-4.94 0.92-4.17 0-6.67-2.01-2.5-2.01-2.5-5.27 0-3.27 2.39-5.25 2.38-1.99 7.58-1.99h7.11v-0.89q0-2.89-1.68-4.43-1.69-1.54-4.97-1.54-2.2 0-4.3 0.72-2.11 0.73-3.56 1.94l-1.87-3.36q1.92-1.54 4.59-2.35 2.67-0.82 5.66-0.82zm-1.02 21.79q2.57 0 4.44-1.15 1.87-1.14 2.72-3.24v-3.45h-6.93q-5.71 0-5.71 3.83 0 1.86 1.45 2.93 1.45 1.08 4.02 1.08zm25.82 3.45q-3.04 0-5.85-0.82-2.8-0.81-4.4-2.07l1.88-3.55q1.63 1.17 3.97 1.87 2.34 0.7 4.73 0.7 5.9 0 5.89-3.36 0-1.12-0.79-1.77-0.8-0.66-1.99-0.96-1.2-0.3-3.4-0.67-2.99-0.47-4.89-1.08-1.89-0.6-3.25-2.05-1.35-1.45-1.35-4.06 0-3.36 2.81-5.39 2.81-2.03 7.53-2.03 2.48 0 4.97 0.6 2.47 0.61 4.07 1.64l-1.92 3.54q-3.05-1.95-7.16-1.96-2.86 0.01-4.36 0.93-1.49 0.94-1.49 2.48 0 1.21 0.84 1.91 0.84 0.7 2.08 1.03 1.24 0.32 3.49 0.74 2.99 0.51 4.84 1.1 1.85 0.58 3.16 1.98 1.31 1.4 1.32 3.92 0 3.36-2.88 5.35-2.88 1.98-7.84 1.98zm24.09-25.24q5.15 0 7.88 2.52 2.74 2.52 2.74 7.51v14.93h-4.26v-3.27q-1.12 1.73-3.2 2.64-2.08 0.91-4.94 0.91-4.17 0-6.67-2.01-2.5-2-2.5-5.27 0-3.27 2.39-5.25 2.39-1.98 7.58-1.98h7.12v-0.89q0-2.89-1.69-4.43-1.69-1.54-4.96-1.54-2.2 0-4.31 0.72-2.1 0.72-3.56 1.94l-1.87-3.36q1.92-1.54 4.59-2.36 2.67-0.82 5.66-0.82zm-1.03 21.79q2.58 0 4.45-1.14 1.87-1.14 2.72-3.24v-3.46h-6.93q-5.71 0-5.71 3.83 0 1.87 1.45 2.94 1.45 1.07 4.02 1.07z"/>
			<path class="s0" d="m60.16 148.42v13.47h-1.4v-6.22h-8.45v6.22h-1.43v-13.47h1.43v6h8.45v-6zm17.72 13.58q-2.01 0-3.64-0.89-1.63-0.9-2.54-2.45-0.92-1.56-0.92-3.51 0.01-1.94 0.92-3.5 0.91-1.56 2.54-2.45 1.63-0.89 3.64-0.89 2.01 0 3.61 0.88 1.62 0.89 2.54 2.45 0.92 1.57 0.92 3.51 0 1.95-0.92 3.51-0.93 1.57-2.54 2.46-1.61 0.88-3.61 0.88zm0-1.27q1.6 0 2.89-0.72 1.3-0.73 2.03-2 0.74-1.28 0.74-2.86 0-1.57-0.74-2.85-0.73-1.28-2.03-2-1.29-0.73-2.89-0.73-1.6 0-2.91 0.73-1.3 0.72-2.04 2-0.75 1.27-0.75 2.85 0 1.58 0.75 2.86 0.74 1.28 2.04 2 1.3 0.72 2.91 0.72zm31.72-12.31v13.47h-1.36v-10.78l-5.31 9.06h-0.68l-5.3-9v10.71h-1.37v-13.46h1.18l5.86 9.98 5.81-9.98h1.17zm21.37 12.23v1.23h-9.55v-13.46h9.26v1.23h-7.83v4.79h6.98v1.21h-6.98v5zm24.9 1.35q-2.01 0-3.62-0.89-1.6-0.88-2.52-2.45-0.92-1.57-0.92-3.51 0-1.94 0.92-3.51 0.91-1.57 2.53-2.45 1.62-0.89 3.63-0.89 1.5 0 2.78 0.5 1.27 0.51 2.16 1.46l-0.91 0.91q-1.58-1.6-3.99-1.6-1.6 0-2.92 0.73-1.31 0.73-2.06 2-0.74 1.27-0.74 2.84 0 1.58 0.74 2.85 0.75 1.27 2.06 2 1.31 0.73 2.92 0.73 2.43 0 3.99-1.62l0.91 0.91q-0.89 0.96-2.17 1.47-1.29 0.51-2.79 0.51zm23.55-3.72h-7.53l-1.62 3.6h-1.49l6.18-13.47h1.4l6.18 13.47h-1.5zm-0.52-1.15l-3.25-7.24-3.24 7.24zm22.52 4.74l-3.08-4.32q-0.52 0.05-1.08 0.05h-3.63v4.27h-1.42v-13.46h5.05q2.59 0 4.06 1.23 1.46 1.24 1.46 3.38 0 1.58-0.8 2.67-0.8 1.09-2.29 1.57l3.3 4.61h-1.56zm-4.21-5.48q2.01 0 3.07-0.88 1.06-0.89 1.06-2.48c0-1.06-0.35-1.93-1.06-2.51q-1.06-0.87-3.07-0.87h-3.58v6.75h3.58zm25.9 4.25v1.23h-9.55v-13.46h9.26v1.23h-7.83v4.79h6.98v1.21h-6.98v5z"/>
		</g>
	</g>
</svg>